<?xml version="1.0" ?>
<svg xmlns="http://www.w3.org/2000/svg" version="1.1" width="1024" height="1024">
	<g fill="none" stroke-linecap="butt">
		<path stroke="#FC513CFE" d="M 311.00 150.00 L 311.00 150.00 C 311.00 150.00 311.45 150.00 312.00 150.00 C 312.55 150.00 314.12 149.10 318.00 146.00" vector-effect="non-scaling-stroke"/>
		<path stroke="#FC513CFE" d="M 319.00 146.00 L 319.00 146.00 C 319.00 146.00 339.25 133.85 364.00 119.00 C 388.75 104.15 419.57 85.70 432.50 78.00 C 445.43 70.30 464.77 58.83 475.50 52.50 C 486.23 46.17 496.80 40.10 499.00 39.00 C 501.20 37.90 506.38 36.10 510.50 35.00 C 515.74 33.60 521.17 33.00 528.50 33.00 C 534.28 33.00 541.92 33.67 545.50 34.50 C 549.08 35.33 554.70 37.35 564.00 42.00" vector-effect="non-scaling-stroke"/>
		<path stroke="#BD443A63" d="M 646.00 89.00 L 646.00 89.00 C 646.00 89.00 645.10 88.55 644.00 88.00 C 642.90 87.45 624.45 76.88 564.00 42.00" vector-effect="non-scaling-stroke"/>
		<path stroke="#BD443A63" d="M 564.00 42.00 L 564.00 42.00 C 564.00 42.00 564.00 41.77 564.00 41.50 C 564.00 41.23 563.55 40.55 562.00 39.00" vector-effect="non-scaling-stroke"/>
		<path stroke="#BF463B59" d="M 732.00 140.00 L 732.00 140.00 C 732.00 140.00 731.55 140.00 731.00 140.00 C 730.45 140.00 730.00 139.78 730.00 139.00" vector-effect="non-scaling-stroke"/>
		<path stroke="#BF463B59" d="M 729.00 139.00 L 729.00 139.00 C 729.00 139.00 722.25 134.95 714.00 130.00 C 705.75 125.05 691.35 116.50 682.00 111.00 C 672.65 105.50 660.73 98.30 646.00 89.00" vector-effect="non-scaling-stroke"/>
		<path stroke="#BF463B59" d="M 646.00 89.00 L 646.00 89.00 C 646.00 89.00 646.67 88.78 647.50 88.50 C 648.33 88.22 648.77 88.45 648.50 89.00 C 648.23 89.55 648.45 89.78 649.00 89.50 C 649.55 89.22 649.77 88.55 649.00 87.00" vector-effect="non-scaling-stroke"/>
		<path stroke="#DE4F4201" d="M 335.00 134.00 L 335.00 134.00 C 335.00 134.00 334.77 134.22 334.50 134.50 C 334.23 134.78 332.88 135.90 331.50 137.00 C 330.12 138.10 327.20 139.68 321.00 142.00" vector-effect="non-scaling-stroke"/>
		<path stroke="#C2453B36" d="M 730.00 139.00 L 730.00 139.00 C 730.00 139.00 729.77 139.00 729.00 139.00" vector-effect="non-scaling-stroke"/>
		<path stroke="#C2453B36" d="M 729.00 139.00 L 729.00 139.00 C 729.00 139.00 728.77 138.32 728.50 137.50 C 728.23 136.68 728.45 136.00 729.00 136.00 C 729.55 136.00 730.23 136.45 730.50 137.00 C 730.77 137.55 730.77 138.22 730.00 139.00" vector-effect="non-scaling-stroke"/>
		<path stroke="#C7483D34" d="M 782.00 172.00 L 782.00 172.00 C 782.00 172.00 779.08 170.20 775.50 168.00 C 771.92 165.80 768.77 163.55 768.00 162.00" vector-effect="non-scaling-stroke"/>
		<path stroke="#C7483D34" d="M 767.00 162.00 L 767.00 162.00 C 767.00 162.00 766.77 162.00 766.50 162.00 C 766.23 162.00 765.55 161.55 764.00 160.00" vector-effect="non-scaling-stroke"/>
		<path stroke="#C7483D34" d="M 752.00 152.00 L 752.00 152.00 C 752.00 152.00 747.50 149.53 742.00 146.50 C 736.50 143.47 732.00 140.78 732.00 140.00" vector-effect="non-scaling-stroke"/>
		<path stroke="#C7483D34" d="M 732.00 140.00 L 732.00 140.00 C 732.00 140.00 731.77 139.55 731.50 139.00 C 731.23 138.45 731.23 138.00 731.50 138.00 C 731.77 138.00 732.90 138.45 734.00 139.00 C 735.10 139.55 735.77 140.45 735.50 141.00 C 735.23 141.55 735.23 142.00 735.50 142.00 C 735.77 142.00 736.23 141.78 737.00 141.00" vector-effect="non-scaling-stroke"/>
		<path stroke="#C7473B33" d="M 319.00 146.00 L 319.00 146.00 C 319.00 146.00 318.77 146.00 318.00 146.00" vector-effect="non-scaling-stroke"/>
		<path stroke="#C7473B33" d="M 318.00 146.00 L 318.00 146.00 C 318.00 146.00 317.55 146.00 317.00 146.00 C 316.45 146.00 316.68 145.32 317.50 144.50 C 318.32 143.68 319.23 143.22 319.50 143.50 C 319.77 143.78 319.77 144.45 319.00 146.00" vector-effect="non-scaling-stroke"/>
		<path stroke="#C9493E33" d="M 311.00 150.00 L 311.00 150.00 C 311.00 150.00 311.00 150.22 311.00 150.50 C 311.00 150.78 303.12 155.50 276.00 171.00" vector-effect="non-scaling-stroke"/>
		<path stroke="#C9493E33" d="M 308.00 150.00 L 308.00 150.00 C 308.00 150.00 308.68 149.55 309.50 149.00 C 310.32 148.45 311.23 148.22 311.50 148.50 C 311.77 148.78 311.77 149.22 311.00 150.00" vector-effect="non-scaling-stroke"/>
		<path stroke="#A8403693" d="M 752.00 152.00 L 752.00 152.00 C 752.00 152.00 752.90 152.45 754.00 153.00 C 755.10 153.55 756.45 154.22 757.00 154.50 C 757.55 154.78 759.35 156.12 764.00 160.00" vector-effect="non-scaling-stroke"/>
		<path stroke="#A8403693" d="M 764.00 160.00 L 764.00 160.00 C 764.00 160.00 761.30 158.43 758.00 156.50 C 754.70 154.57 752.00 152.78 752.00 152.00" vector-effect="non-scaling-stroke"/>
		<path stroke="#CC493F0A" d="M 768.00 162.00 L 768.00 162.00 C 768.00 162.00 767.77 162.00 767.00 162.00" vector-effect="non-scaling-stroke"/>
		<path stroke="#CC493F0A" d="M 767.00 162.00 L 767.00 162.00 C 767.00 162.00 766.55 161.32 766.00 160.50 C 765.26 159.39 765.39 159.00 766.50 159.00 C 767.33 159.00 769.35 160.35 771.00 162.00 C 772.65 163.65 773.10 164.32 772.00 163.50 C 770.90 162.68 769.55 162.00 768.00 162.00" vector-effect="non-scaling-stroke"/>
		<path stroke="#B4433870" d="M 276.00 171.00 L 276.00 171.00 C 276.00 171.00 275.55 171.45 275.00 172.00 C 274.45 172.55 266.35 177.50 240.00 193.00" vector-effect="non-scaling-stroke"/>
		<path stroke="#B4433870" d="M 269.00 173.00 L 269.00 173.00 C 269.00 173.00 269.23 173.22 269.50 173.50 C 269.77 173.78 270.45 173.55 271.00 173.00 C 271.55 172.45 272.90 171.78 276.00 171.00" vector-effect="non-scaling-stroke"/>
		<path stroke="#B6453B5C" d="M 782.00 172.00 L 782.00 172.00 C 782.00 172.00 782.23 172.00 782.50 172.00 C 782.77 172.00 783.23 172.00 784.00 172.00" vector-effect="non-scaling-stroke"/>
		<path stroke="#B6453B5C" d="M 875.00 329.00 L 875.00 329.00 C 875.00 329.00 874.77 323.60 874.50 317.00 C 874.23 310.40 873.10 300.95 872.00 296.00 C 870.90 291.05 868.65 282.73 867.00 277.50 C 865.35 272.27 861.08 262.15 857.50 255.00 C 853.92 247.85 847.40 237.05 843.00 231.00 C 838.22 224.43 829.17 214.17 820.50 205.50 C 812.52 197.53 800.60 186.72 782.00 172.00" vector-effect="non-scaling-stroke"/>
		<path stroke="#C9473C36" d="M 255.00 182.00 L 255.00 182.00 C 255.00 182.00 255.00 182.22 255.00 182.50 C 255.00 182.78 253.65 183.90 249.00 187.00" vector-effect="non-scaling-stroke"/>
		<path stroke="#C9473C36" d="M 246.00 188.00 L 246.00 188.00 C 246.00 188.00 245.10 188.45 244.00 189.00 C 242.90 189.55 241.55 190.68 240.00 193.00" vector-effect="non-scaling-stroke"/>
		<path stroke="#C9473C36" d="M 240.00 193.00 L 240.00 193.00 C 240.00 193.00 239.78 193.00 239.00 193.00" vector-effect="non-scaling-stroke"/>
		<path stroke="#C9473C36" d="M 230.00 199.00 L 230.00 199.00 C 230.00 199.00 225.28 201.93 219.50 205.50 C 213.72 209.07 196.18 219.43 152.00 245.00" vector-effect="non-scaling-stroke"/>
		<path stroke="#B4433779" d="M 239.00 193.00 L 239.00 193.00 C 239.00 193.00 239.00 193.22 239.00 193.50 C 239.00 193.78 236.97 195.12 230.00 199.00" vector-effect="non-scaling-stroke"/>
		<path stroke="#B4433779" d="M 230.00 199.00 L 230.00 199.00 C 230.00 199.00 231.35 197.65 233.00 196.00 C 234.65 194.35 236.68 193.00 239.00 193.00" vector-effect="non-scaling-stroke"/>
		<path stroke="#B0403658" d="M 152.00 245.00 L 152.00 245.00 C 152.00 245.00 151.10 245.68 150.00 246.50 C 148.90 247.32 146.20 249.35 140.00 254.00" vector-effect="non-scaling-stroke"/>
		<path stroke="#B0403658" d="M 144.00 248.00 L 144.00 248.00 C 144.00 248.00 145.35 247.32 147.00 246.50 C 148.65 245.68 150.45 245.00 152.00 245.00" vector-effect="non-scaling-stroke"/>
		<path stroke="#D42A20FE" d="M 331.00 374.00 L 331.00 374.00 C 331.00 374.00 333.02 372.65 335.50 371.00 C 337.98 369.35 355.07 358.55 373.50 347.00 C 391.93 335.45 421.62 316.77 439.50 305.50 C 457.38 294.23 481.00 279.38 492.00 272.50 C 503.00 265.62 514.70 258.65 518.00 257.00 C 521.30 255.35 528.05 252.65 533.00 251.00 C 537.95 249.35 546.27 247.32 551.50 246.50 C 556.73 245.68 565.50 245.00 571.00 245.00 C 576.50 245.00 585.50 245.68 591.00 246.50 C 596.50 247.32 604.60 249.12 609.00 250.50 C 613.40 251.88 619.92 254.35 623.50 256.00 C 627.08 257.65 633.15 261.02 637.00 263.50 C 640.85 265.98 646.92 270.48 650.50 273.50 C 654.08 276.52 659.02 281.70 661.50 285.00 C 663.98 288.30 667.58 293.93 669.50 297.50 C 671.42 301.07 673.67 305.80 674.50 308.00 C 675.33 310.20 676.45 315.38 677.00 319.50 C 677.67 324.50 677.67 329.17 677.00 333.50 C 676.45 337.07 674.88 342.70 673.50 346.00 C 672.12 349.30 669.65 354.48 668.00 357.50 C 666.28 360.65 660.73 367.27 655.00 373.00 C 649.50 378.50 640.73 385.93 626.00 396.00" vector-effect="non-scaling-stroke"/>
		<path stroke="#F23E2DFE" d="M 331.00 374.00 L 331.00 374.00 C 331.00 374.00 331.00 374.23 331.00 374.50 C 331.00 374.77 331.00 405.82 331.00 512.00" vector-effect="non-scaling-stroke"/>
		<path stroke="#F23E2DFE" d="M 139.00 271.00 L 139.00 271.00 C 139.00 271.00 139.22 269.20 139.50 267.00 C 139.78 264.80 140.45 262.55 141.00 262.00 C 141.67 261.33 144.83 262.67 150.50 266.00 C 155.18 268.75 161.93 272.57 165.50 274.50 C 169.07 276.43 176.50 280.70 182.00 284.00 C 187.50 287.30 195.82 292.48 200.50 295.50 C 205.18 298.52 215.97 305.05 224.50 310.00 C 233.03 314.95 245.85 322.60 253.00 327.00 C 260.15 331.40 268.93 336.57 272.50 338.50 C 276.07 340.43 279.45 342.45 280.00 343.00 C 280.55 343.55 286.85 347.38 294.00 351.50 C 301.15 355.62 309.70 360.57 313.00 362.50 C 316.30 364.43 319.45 366.45 320.00 367.00 C 320.55 367.55 323.25 369.35 331.00 374.00" vector-effect="non-scaling-stroke"/>
		<path stroke="#A3352C62" d="M 863.00 749.00 L 863.00 749.00 C 863.00 749.00 857.15 742.48 850.00 734.50 C 842.85 726.52 832.95 715.27 828.00 709.50 C 823.05 703.73 806.62 684.83 791.50 667.50 C 776.38 650.17 763.10 634.88 760.00 631.00" vector-effect="non-scaling-stroke"/>
		<path stroke="#A3352C62" d="M 874.00 359.00 L 874.00 359.00 C 874.00 359.00 874.23 356.75 874.50 354.00 C 874.77 351.25 875.00 346.30 875.00 337.00" vector-effect="non-scaling-stroke"/>
		<path stroke="#DB2F24FE" d="M 874.00 359.00 L 874.00 359.00 C 874.00 359.00 874.23 378.57 874.50 402.50 C 874.79 427.44 874.57 451.55 874.00 459.00 C 873.45 466.15 871.88 477.18 870.50 483.50 C 869.12 489.82 866.65 498.82 865.00 503.50 C 863.35 508.18 859.98 516.27 857.50 521.50 C 855.02 526.73 850.75 534.60 848.00 539.00 C 845.25 543.40 839.40 551.73 835.00 557.50 C 830.60 563.27 823.17 572.05 818.50 577.00 C 813.83 581.95 803.25 592.08 795.00 599.50 C 786.75 606.92 775.50 616.60 770.00 621.00 C 764.50 625.40 760.00 629.45 760.00 631.00" vector-effect="non-scaling-stroke"/>
		<path stroke="#DB2F24FE" d="M 760.00 631.00 L 760.00 631.00 C 760.00 631.00 755.95 626.50 751.00 621.00 C 746.05 615.50 738.85 607.40 735.00 603.00 C 731.15 598.60 725.08 591.62 721.50 587.50 C 717.92 583.38 709.15 573.48 702.00 565.50 C 694.85 557.52 688.55 549.88 688.00 548.50 C 687.45 547.12 687.23 545.10 687.50 544.00 C 687.79 542.85 692.23 539.25 698.00 535.50 C 703.50 531.92 715.42 523.83 724.50 517.50 C 733.58 511.18 747.30 501.73 755.00 496.50 C 762.70 491.27 776.20 481.82 785.00 475.50 C 793.80 469.18 804.83 460.85 809.50 457.00 C 814.17 453.15 821.60 446.18 826.00 441.50 C 830.40 436.82 835.58 431.20 837.50 429.00 C 839.42 426.80 843.48 421.62 846.50 417.50 C 849.52 413.38 854.02 406.40 856.50 402.00 C 858.98 397.60 862.35 390.85 864.00 387.00 C 865.65 383.15 868.12 376.18 869.50 371.50 C 870.88 366.82 872.00 362.32 872.00 361.50 C 872.00 360.68 872.45 359.77 874.00 359.00" vector-effect="non-scaling-stroke"/>
		<path stroke="#952B2388" d="M 331.00 513.00 L 331.00 513.00 C 331.00 513.00 331.00 512.77 331.00 512.00" vector-effect="non-scaling-stroke"/>
		<path stroke="#952B2388" d="M 331.00 512.00 L 331.00 512.00 C 331.00 512.00 336.85 508.40 344.00 504.00 C 351.15 499.60 368.25 488.80 382.00 480.00 C 395.75 471.20 418.70 456.57 433.00 447.50 C 447.30 438.43 466.20 426.50 475.00 421.00 C 483.80 415.50 495.95 407.85 502.00 404.00 C 508.05 400.15 517.50 394.75 523.00 392.00 C 528.50 389.25 536.83 385.88 541.50 384.50 C 546.17 383.12 554.27 381.55 559.50 381.00 C 564.73 380.45 573.27 380.23 578.50 380.50 C 583.73 380.77 591.83 381.90 596.50 383.00 C 601.17 384.10 608.15 386.35 612.00 388.00 C 615.85 389.65 620.35 391.90 625.00 395.00" vector-effect="non-scaling-stroke"/>
		<path stroke="#AC352A73" d="M 621.00 394.00 L 621.00 394.00 C 621.00 394.00 621.23 394.00 621.50 394.00 C 621.77 394.00 622.67 394.23 625.00 395.00" vector-effect="non-scaling-stroke"/>
		<path stroke="#AC352A73" d="M 625.00 395.00 L 625.00 395.00 C 625.00 395.00 625.23 395.00 625.50 395.00 C 625.77 395.00 626.00 395.23 626.00 396.00" vector-effect="non-scaling-stroke"/>
		<path stroke="#AC352A73" d="M 626.00 396.00 L 626.00 396.00 C 626.00 396.00 623.98 397.57 621.50 399.50 C 619.02 401.43 580.10 427.52 535.00 457.50 C 489.90 487.48 449.85 514.02 446.00 516.50 C 442.15 518.98 437.88 522.35 436.50 524.00 C 434.50 526.40 434.00 528.10 434.00 538.00" vector-effect="non-scaling-stroke"/>
		<path stroke="#B6372D54" d="M 331.00 826.00 L 331.00 826.00 C 331.00 826.00 331.00 801.92 331.00 772.50 C 331.00 743.08 331.00 672.65 331.00 513.00" vector-effect="non-scaling-stroke"/>
		<path stroke="#B6372D54" d="M 331.00 513.00 L 331.00 513.00 C 331.00 513.00 331.23 512.77 331.50 512.50 C 331.77 512.23 332.45 512.00 334.00 512.00" vector-effect="non-scaling-stroke"/>
		<path stroke="#ED3929FE" d="M 540.00 829.00 L 540.00 829.00 C 540.00 829.00 523.80 808.75 504.00 784.00 C 484.20 759.25 464.62 734.73 460.50 729.50 C 456.38 724.27 451.20 717.75 449.00 715.00 C 446.80 712.25 443.43 707.75 441.50 705.00 C 439.57 702.25 437.10 697.08 436.00 693.50 C 434.08 687.25 434.00 684.17 434.00 538.00" vector-effect="non-scaling-stroke"/>
		<path stroke="#ED3929FE" d="M 434.00 538.00 L 434.00 538.00 C 434.00 538.00 434.45 537.77 435.00 537.50 C 435.55 537.23 436.90 538.35 438.00 540.00 C 439.10 541.65 443.82 547.27 448.50 552.50 C 453.18 557.73 458.12 563.58 459.50 565.50 C 460.88 567.42 464.93 572.38 468.50 576.50 C 472.07 580.62 479.50 589.62 485.00 596.50 C 490.50 603.38 497.70 612.15 501.00 616.00 C 504.30 619.85 518.25 636.50 532.00 653.00 C 545.75 669.50 560.15 686.60 564.00 691.00 C 567.85 695.40 578.42 708.23 587.50 719.50 C 596.58 730.77 610.75 748.10 619.00 758.00 C 627.25 767.90 637.60 780.05 642.00 785.00 C 646.40 789.95 656.98 802.77 665.50 813.50 C 674.02 824.23 684.60 837.27 689.00 842.50 C 693.40 847.73 698.80 854.25 701.00 857.00 C 704.10 860.87 705.79 862.11 712.00 863.00" vector-effect="non-scaling-stroke"/>
		<path stroke="#A22F2551" d="M 139.00 727.00 L 139.00 727.00 C 139.00 727.00 139.90 728.35 141.00 730.00 C 142.17 731.75 149.85 737.36 159.50 743.50 C 168.57 749.27 183.20 758.27 192.00 763.50 C 200.80 768.73 226.22 784.02 248.50 797.50 C 270.77 810.98 290.57 822.90 292.50 824.00 C 294.43 825.10 301.62 829.38 308.50 833.50 C 315.38 837.62 321.45 841.00 323.00 841.00" vector-effect="non-scaling-stroke"/>
		<path stroke="#C64D3E04" d="M 855.50 739.50 C 855.06 738.17 855.17 738.17 856.50 739.50 C 857.33 740.33 857.55 741.00 857.00 741.00 C 856.45 741.00 855.77 740.33 855.50 739.50" vector-effect="non-scaling-stroke"/>
		<path stroke="#D3493E01" d="M 863.00 750.00 L 863.00 750.00 C 863.00 750.00 863.00 749.77 863.00 749.00" vector-effect="non-scaling-stroke"/>
		<path stroke="#D3493E01" d="M 863.00 749.00 L 863.00 749.00 C 863.00 749.00 861.88 747.65 860.50 746.00 C 858.96 744.15 858.19 742.23 859.00 739.00" vector-effect="non-scaling-stroke"/>
		<path stroke="#A531286A" d="M 863.00 750.00 L 863.00 750.00 C 863.00 750.00 863.67 750.45 864.50 751.00 C 865.33 751.55 866.67 752.00 869.00 752.00" vector-effect="non-scaling-stroke"/>
		<path stroke="#A531286A" d="M 867.00 764.00 L 867.00 764.00 C 867.00 764.00 867.00 762.42 867.00 760.50 C 867.00 758.58 866.10 755.42 863.00 750.00" vector-effect="non-scaling-stroke"/>
		<path stroke="#DA2D23FE" d="M 867.00 764.00 L 867.00 764.00 C 867.00 764.00 867.00 795.73 867.00 834.50 C 867.00 895.61 866.80 905.27 865.50 907.00 C 864.67 908.10 859.50 912.15 844.00 923.00" vector-effect="non-scaling-stroke"/>
		<path stroke="#DA2D23FE" d="M 709.00 1010.00 L 709.00 1010.00 C 709.00 1010.00 709.23 986.38 709.50 957.50 C 709.77 928.62 710.00 895.77 710.00 884.50 C 710.00 871.83 710.38 863.81 712.00 863.00" vector-effect="non-scaling-stroke"/>
		<path stroke="#DA2D23FE" d="M 712.00 863.00 L 712.00 863.00 C 712.00 863.00 713.12 862.55 714.50 862.00 C 715.88 861.45 721.73 858.08 727.50 854.50 C 733.27 850.92 749.70 840.35 764.00 831.00 C 778.30 821.65 799.45 807.92 811.00 800.50 C 822.55 793.08 839.88 781.83 867.00 764.00" vector-effect="non-scaling-stroke"/>
		<path stroke="#B5362903" d="M 536.00 830.00 L 536.00 830.00 C 536.00 830.00 536.23 829.77 536.50 829.50 C 536.77 829.23 536.55 828.33 536.00 827.50 C 535.33 826.50 535.33 826.00 536.00 826.00 C 536.55 826.00 537.23 826.67 538.00 829.00" vector-effect="non-scaling-stroke"/>
		<path stroke="#B4322825" d="M 538.00 829.00 L 538.00 829.00 C 538.00 829.00 538.23 829.00 538.50 829.00 C 538.77 829.00 539.23 829.00 540.00 829.00" vector-effect="non-scaling-stroke"/>
		<path stroke="#B4322825" d="M 540.00 829.00 L 540.00 829.00 C 540.00 829.00 540.00 829.23 540.00 830.00" vector-effect="non-scaling-stroke"/>
		<path stroke="#B4322825" d="M 539.00 830.00 L 539.00 830.00 C 539.00 830.00 538.77 830.00 538.50 830.00 C 538.23 830.00 538.00 829.77 538.00 829.00" vector-effect="non-scaling-stroke"/>
		<path stroke="#AC352A73" d="M 537.00 832.00 L 537.00 832.00 C 537.00 832.00 537.23 831.55 537.50 831.00 C 537.83 830.33 538.17 830.33 539.00 832.00" vector-effect="non-scaling-stroke"/>
		<path stroke="#AC352A73" d="M 539.00 830.00 L 539.00 830.00 C 539.00 830.00 539.23 830.00 540.00 830.00" vector-effect="non-scaling-stroke"/>
		<path stroke="#AC352A73" d="M 540.00 830.00 L 540.00 830.00 C 540.00 830.00 546.52 837.88 554.50 847.50 C 562.48 857.12 575.98 873.77 584.50 884.50 C 593.02 895.23 603.83 908.73 617.00 925.00" vector-effect="non-scaling-stroke"/>
		<path stroke="#AC352A73" d="M 570.00 869.00 L 570.00 869.00 C 570.00 869.00 566.40 864.50 562.00 859.00 C 557.60 853.50 550.62 844.73 539.00 830.00" vector-effect="non-scaling-stroke"/>
		<path stroke="#992D235C" d="M 617.00 925.00 L 617.00 925.00 C 617.00 925.00 620.83 929.73 625.50 935.50 C 630.17 941.27 641.20 954.77 650.00 965.50 C 658.80 976.23 670.73 990.85 676.50 998.00 C 682.27 1005.15 688.35 1011.90 690.00 1013.00 C 691.75 1014.17 694.67 1015.00 697.00 1015.00 C 699.53 1015.00 702.47 1014.08 709.00 1010.00" vector-effect="non-scaling-stroke"/>
		<path stroke="#992D235C" d="M 709.00 1010.00 L 709.00 1010.00 C 709.00 1010.00 710.80 1008.88 713.00 1007.50 C 715.20 1006.12 724.20 1000.27 733.00 994.50 C 741.80 988.73 753.27 981.30 758.50 978.00 C 763.73 974.70 776.77 966.15 787.50 959.00 C 798.23 951.85 812.62 942.62 832.00 931.00" vector-effect="non-scaling-stroke"/>
		<path stroke="#992D235C" d="M 612.00 922.00 L 612.00 922.00 C 612.00 922.00 612.00 921.77 612.00 921.50 C 612.00 921.23 613.12 921.90 617.00 925.00" vector-effect="non-scaling-stroke"/>
	</g>
	<path fill="#BA453A6A" d="M 562.00 39.00 C 563.55 40.55 564.00 41.23 564.00 41.50 C 564.00 41.77 564.00 42.00 564.00 42.00 L 564.00 42.00 C 554.70 37.35 549.08 35.33 545.50 34.50 C 541.92 33.67 534.28 33.00 528.50 33.00 C 521.17 33.00 515.74 33.60 510.50 35.00 C 506.38 36.10 501.20 37.90 499.00 39.00 C 496.80 40.10 486.23 46.17 475.50 52.50 C 464.77 58.83 445.43 70.30 432.50 78.00 C 419.57 85.70 388.75 104.15 364.00 119.00 C 339.25 133.85 319.00 146.00 319.00 146.00 L 319.00 146.00 C 319.77 144.45 319.77 143.78 319.50 143.50 C 319.23 143.22 318.32 143.68 317.50 144.50 C 316.68 145.32 316.45 146.00 317.00 146.00 C 317.55 146.00 318.00 146.00 318.00 146.00 L 318.00 146.00 C 314.12 149.10 312.55 150.00 312.00 150.00 C 311.45 150.00 311.00 150.00 311.00 150.00 L 311.00 150.00 C 311.77 149.22 311.77 148.78 311.50 148.50 C 311.23 148.22 310.32 148.45 309.50 149.00 C 308.68 149.55 308.00 150.00 308.00 150.00 L 308.00 150.00 C 313.43 144.57 316.35 142.78 318.00 142.50 C 319.65 142.22 321.00 142.00 321.00 142.00 L 321.00 142.00 C 327.20 139.68 330.12 138.10 331.50 137.00 C 332.88 135.90 334.23 134.78 334.50 134.50 C 334.77 134.22 335.00 134.00 335.00 134.00 L 335.00 134.00 C 386.15 103.00 403.02 92.88 405.50 91.50 C 407.98 90.12 416.30 85.17 424.00 80.50 C 431.70 75.83 447.45 66.38 459.00 59.50 C 470.55 52.62 480.68 46.55 481.50 46.00 C 482.32 45.45 486.82 42.98 491.50 40.50 C 496.18 38.02 503.38 34.88 507.50 33.50 C 513.90 31.37 516.83 31.00 527.50 31.00 C 534.38 31.00 542.48 31.45 545.50 32.00 C 548.52 32.55 553.48 34.35 556.50 36.00 C 559.52 37.65 562.00 39.00 562.00 39.00 L 562.00 39.00 Z" fill-rule="evenodd"/>
	<path fill="#FC513CFE" d="M 564.00 42.00 C 624.45 76.88 642.90 87.45 644.00 88.00 C 645.10 88.55 646.00 89.00 646.00 89.00 L 646.00 89.00 C 660.73 98.30 672.65 105.50 682.00 111.00 C 691.35 116.50 705.75 125.05 714.00 130.00 C 722.25 134.95 729.00 139.00 729.00 139.00 L 729.00 139.00 C 729.77 139.00 730.00 139.00 730.00 139.00 L 730.00 139.00 C 730.00 139.78 730.45 140.00 731.00 140.00 C 731.55 140.00 732.00 140.00 732.00 140.00 L 732.00 140.00 C 732.00 140.78 736.50 143.47 742.00 146.50 C 747.50 149.53 752.00 152.00 752.00 152.00 L 752.00 152.00 C 752.00 152.78 754.70 154.57 758.00 156.50 C 761.30 158.43 764.00 160.00 764.00 160.00 L 764.00 160.00 C 765.55 161.55 766.23 162.00 766.50 162.00 C 766.77 162.00 767.00 162.00 767.00 162.00 L 767.00 162.00 C 767.77 162.00 768.00 162.00 768.00 162.00 L 768.00 162.00 C 768.77 163.55 771.92 165.80 775.50 168.00 C 779.08 170.20 782.00 172.00 782.00 172.00 L 782.00 172.00 C 800.60 186.72 812.52 197.53 820.50 205.50 C 829.17 214.17 838.22 224.43 843.00 231.00 C 847.40 237.05 853.92 247.85 857.50 255.00 C 861.08 262.15 865.35 272.27 867.00 277.50 C 868.65 282.73 870.90 291.05 872.00 296.00 C 873.10 300.95 874.23 310.40 874.50 317.00 C 874.77 323.60 875.00 329.00 875.00 329.00 L 875.00 329.00 C 875.00 334.43 875.00 336.23 875.00 336.50 C 875.00 336.77 875.00 337.00 875.00 337.00 L 875.00 337.00 C 875.00 346.30 874.77 351.25 874.50 354.00 C 874.23 356.75 874.00 359.00 874.00 359.00 L 874.00 359.00 C 872.45 359.77 872.00 360.68 872.00 361.50 C 872.00 362.32 870.88 366.82 869.50 371.50 C 868.12 376.18 865.65 383.15 864.00 387.00 C 862.35 390.85 858.98 397.60 856.50 402.00 C 854.02 406.40 849.52 413.38 846.50 417.50 C 843.48 421.62 839.42 426.80 837.50 429.00 C 835.58 431.20 830.40 436.82 826.00 441.50 C 821.60 446.18 814.17 453.15 809.50 457.00 C 804.83 460.85 793.80 469.18 785.00 475.50 C 776.20 481.82 762.70 491.27 755.00 496.50 C 747.30 501.73 733.58 511.18 724.50 517.50 C 715.42 523.83 703.50 531.92 698.00 535.50 C 692.23 539.25 687.79 542.85 687.50 544.00 C 687.23 545.10 687.45 547.12 688.00 548.50 C 688.55 549.88 694.85 557.52 702.00 565.50 C 709.15 573.48 717.92 583.38 721.50 587.50 C 725.08 591.62 731.15 598.60 735.00 603.00 C 738.85 607.40 746.05 615.50 751.00 621.00 C 755.95 626.50 760.00 631.00 760.00 631.00 L 760.00 631.00 C 763.10 634.88 776.38 650.17 791.50 667.50 C 806.62 684.83 823.05 703.73 828.00 709.50 C 832.95 715.27 842.85 726.52 850.00 734.50 C 857.15 742.48 863.00 749.00 863.00 749.00 L 863.00 749.00 C 863.00 749.77 863.00 750.00 863.00 750.00 L 863.00 750.00 C 866.10 755.42 867.00 758.58 867.00 760.50 C 867.00 762.42 867.00 764.00 867.00 764.00 L 867.00 764.00 C 839.88 781.83 822.55 793.08 811.00 800.50 C 799.45 807.92 778.30 821.65 764.00 831.00 C 749.70 840.35 733.27 850.92 727.50 854.50 C 721.73 858.08 715.88 861.45 714.50 862.00 C 713.12 862.55 712.00 863.00 712.00 863.00 L 712.00 863.00 C 705.79 862.11 704.10 860.87 701.00 857.00 C 698.80 854.25 693.40 847.73 689.00 842.50 C 684.60 837.27 674.02 824.23 665.50 813.50 C 656.98 802.77 646.40 789.95 642.00 785.00 C 637.60 780.05 627.25 767.90 619.00 758.00 C 610.75 748.10 596.58 730.77 587.50 719.50 C 578.42 708.23 567.85 695.40 564.00 691.00 C 560.15 686.60 545.75 669.50 532.00 653.00 C 518.25 636.50 504.30 619.85 501.00 616.00 C 497.70 612.15 490.50 603.38 485.00 596.50 C 479.50 589.62 472.07 580.62 468.50 576.50 C 464.93 572.38 460.88 567.42 459.50 565.50 C 458.12 563.58 453.18 557.73 448.50 552.50 C 443.82 547.27 439.10 541.65 438.00 540.00 C 436.90 538.35 435.55 537.23 435.00 537.50 C 434.45 537.77 434.00 538.00 434.00 538.00 L 434.00 538.00 C 434.00 528.10 434.50 526.40 436.50 524.00 C 437.88 522.35 442.15 518.98 446.00 516.50 C 449.85 514.02 489.90 487.48 535.00 457.50 C 580.10 427.52 619.02 401.43 621.50 399.50 C 623.98 397.57 626.00 396.00 626.00 396.00 L 626.00 396.00 C 640.73 385.93 649.50 378.50 655.00 373.00 C 660.73 367.27 666.28 360.65 668.00 357.50 C 669.65 354.48 672.12 349.30 673.50 346.00 C 674.88 342.70 676.45 337.07 677.00 333.50 C 677.67 329.17 677.67 324.50 677.00 319.50 C 676.45 315.38 675.33 310.20 674.50 308.00 C 673.67 305.80 671.42 301.07 669.50 297.50 C 667.58 293.93 663.98 288.30 661.50 285.00 C 659.02 281.70 654.08 276.52 650.50 273.50 C 646.92 270.48 640.85 265.98 637.00 263.50 C 633.15 261.02 627.08 257.65 623.50 256.00 C 619.92 254.35 613.40 251.88 609.00 250.50 C 604.60 249.12 596.50 247.32 591.00 246.50 C 585.50 245.68 576.50 245.00 571.00 245.00 C 565.50 245.00 556.73 245.68 551.50 246.50 C 546.27 247.32 537.95 249.35 533.00 251.00 C 528.05 252.65 521.30 255.35 518.00 257.00 C 514.70 258.65 503.00 265.62 492.00 272.50 C 481.00 279.38 457.38 294.23 439.50 305.50 C 421.62 316.77 391.93 335.45 373.50 347.00 C 355.07 358.55 337.98 369.35 335.50 371.00 C 333.02 372.65 331.00 374.00 331.00 374.00 L 331.00 374.00 C 323.25 369.35 320.55 367.55 320.00 367.00 C 319.45 366.45 316.30 364.43 313.00 362.50 C 309.70 360.57 301.15 355.62 294.00 351.50 C 286.85 347.38 280.55 343.55 280.00 343.00 C 279.45 342.45 276.07 340.43 272.50 338.50 C 268.93 336.57 260.15 331.40 253.00 327.00 C 245.85 322.60 233.03 314.95 224.50 310.00 C 215.97 305.05 205.18 298.52 200.50 295.50 C 195.82 292.48 187.50 287.30 182.00 284.00 C 176.50 280.70 169.07 276.43 165.50 274.50 C 161.93 272.57 155.18 268.75 150.50 266.00 C 144.83 262.67 141.67 261.33 141.00 262.00 C 140.45 262.55 139.78 264.80 139.50 267.00 C 139.22 269.20 139.00 271.00 139.00 271.00 L 139.00 271.00 C 139.00 260.15 139.22 256.32 139.50 255.50 C 139.78 254.68 140.00 254.00 140.00 254.00 L 140.00 254.00 C 146.20 249.35 148.90 247.32 150.00 246.50 C 151.10 245.68 152.00 245.00 152.00 245.00 L 152.00 245.00 C 196.18 219.43 213.72 209.07 219.50 205.50 C 225.28 201.93 230.00 199.00 230.00 199.00 L 230.00 199.00 C 236.97 195.12 239.00 193.78 239.00 193.50 C 239.00 193.22 239.00 193.00 239.00 193.00 L 239.00 193.00 C 239.78 193.00 240.00 193.00 240.00 193.00 L 240.00 193.00 C 266.35 177.50 274.45 172.55 275.00 172.00 C 275.55 171.45 276.00 171.00 276.00 171.00 L 276.00 171.00 C 303.12 155.50 311.00 150.78 311.00 150.50 C 311.00 150.22 311.00 150.00 311.00 150.00 L 311.00 150.00 L 311.00 150.00 C 311.00 150.00 311.45 150.00 312.00 150.00 C 312.55 150.00 314.12 149.10 318.00 146.00 C 318.77 146.00 319.00 146.00 319.00 146.00 L 319.00 146.00 L 319.00 146.00 C 319.00 146.00 339.25 133.85 364.00 119.00 C 388.75 104.15 419.57 85.70 432.50 78.00 C 445.43 70.30 464.77 58.83 475.50 52.50 C 486.23 46.17 496.80 40.10 499.00 39.00 C 501.20 37.90 506.38 36.10 510.50 35.00 C 515.74 33.60 521.17 33.00 528.50 33.00 C 534.28 33.00 541.92 33.67 545.50 34.50 C 549.08 35.33 554.70 37.35 564.00 42.00 Z" fill-rule="evenodd"/>
	<path fill="#BD443A63" d="M 562.00 39.00 C 567.42 41.33 578.23 47.40 589.50 54.00 C 600.77 60.60 615.40 69.15 622.00 73.00 C 628.60 76.85 636.70 81.58 640.00 83.50 C 643.30 85.42 646.67 87.00 647.50 87.00 C 648.33 87.00 649.00 87.00 649.00 87.00 L 649.00 87.00 C 649.77 88.55 649.55 89.22 649.00 89.50 C 648.45 89.78 648.23 89.55 648.50 89.00 C 648.77 88.45 648.33 88.22 647.50 88.50 C 646.67 88.78 646.00 89.00 646.00 89.00 L 646.00 89.00 L 646.00 89.00 C 646.00 89.00 645.10 88.55 644.00 88.00 C 642.90 87.45 624.45 76.88 564.00 42.00 L 564.00 42.00 C 564.00 42.00 564.00 41.77 564.00 41.50 C 564.00 41.23 563.55 40.55 562.00 39.00 Z" fill-rule="evenodd"/>
	<path fill="#BF463B59" d="M 649.00 87.00 C 654.42 91.65 662.98 97.05 671.50 102.00 C 680.02 106.95 689.02 112.35 691.50 114.00 C 693.98 115.65 696.23 117.00 696.50 117.00 C 696.77 117.00 700.60 119.25 705.00 122.00 C 709.40 124.75 713.67 126.78 714.50 126.50 C 715.33 126.22 716.67 126.90 717.50 128.00 C 718.33 129.10 720.80 131.12 723.00 132.50 C 725.20 133.88 728.12 135.00 729.50 135.00 C 731.06 135.00 732.94 136.13 734.50 138.00 C 735.88 139.65 737.00 141.00 737.00 141.00 L 737.00 141.00 C 736.23 141.78 735.77 142.00 735.50 142.00 C 735.23 142.00 735.23 141.55 735.50 141.00 C 735.77 140.45 735.10 139.55 734.00 139.00 C 732.90 138.45 731.77 138.00 731.50 138.00 C 731.23 138.00 731.23 138.45 731.50 139.00 C 731.77 139.55 732.00 140.00 732.00 140.00 L 732.00 140.00 L 732.00 140.00 C 732.00 140.00 731.55 140.00 731.00 140.00 C 730.45 140.00 730.00 139.78 730.00 139.00 C 730.77 138.22 730.77 137.55 730.50 137.00 C 730.23 136.45 729.55 136.00 729.00 136.00 C 728.45 136.00 728.23 136.68 728.50 137.50 C 728.77 138.32 729.00 139.00 729.00 139.00 L 729.00 139.00 L 729.00 139.00 C 729.00 139.00 722.25 134.95 714.00 130.00 C 705.75 125.05 691.35 116.50 682.00 111.00 C 672.65 105.50 660.73 98.30 646.00 89.00 L 646.00 89.00 C 646.00 89.00 646.67 88.78 647.50 88.50 C 648.33 88.22 648.77 88.45 648.50 89.00 C 648.23 89.55 648.45 89.78 649.00 89.50 C 649.55 89.22 649.77 88.55 649.00 87.00 Z" fill-rule="evenodd"/>
	<path fill="#DE4F4201" d="M 335.00 134.00 L 335.00 134.00 C 335.00 134.00 334.77 134.22 334.50 134.50 C 334.23 134.78 332.88 135.90 331.50 137.00 C 330.12 138.10 327.20 139.68 321.00 142.00 C 326.72 136.28 329.28 134.82 331.50 134.50 C 333.43 134.22 335.00 134.00 335.00 134.00 L 335.00 134.00 Z" fill-rule="evenodd"/>
	<path fill="#C2453B36" d="M 730.00 139.00 L 730.00 139.00 C 730.00 139.00 729.77 139.00 729.00 139.00 L 729.00 139.00 C 729.00 139.00 728.77 138.32 728.50 137.50 C 728.23 136.68 728.45 136.00 729.00 136.00 C 729.55 136.00 730.23 136.45 730.50 137.00 C 730.77 137.55 730.77 138.22 730.00 139.00 Z" fill-rule="evenodd"/>
	<path fill="#C7483D34" d="M 737.00 141.00 C 746.30 146.43 750.80 148.68 753.00 149.50 C 755.20 150.32 757.90 151.22 759.00 151.50 C 760.10 151.78 761.45 153.12 762.00 154.50 C 762.69 156.23 763.77 157.00 765.50 157.00 C 766.88 157.00 768.23 157.00 768.50 157.00 C 768.77 157.00 770.12 158.35 771.50 160.00 C 772.88 161.65 776.25 165.03 779.00 167.50 C 781.75 169.97 784.00 172.00 784.00 172.00 L 784.00 172.00 C 783.23 172.00 782.77 172.00 782.50 172.00 C 782.23 172.00 782.00 172.00 782.00 172.00 L 782.00 172.00 L 782.00 172.00 C 782.00 172.00 779.08 170.20 775.50 168.00 C 771.92 165.80 768.77 163.55 768.00 162.00 C 769.55 162.00 770.90 162.68 772.00 163.50 C 773.10 164.32 772.65 163.65 771.00 162.00 C 769.35 160.35 767.33 159.00 766.50 159.00 C 765.39 159.00 765.26 159.39 766.00 160.50 C 766.55 161.32 767.00 162.00 767.00 162.00 L 767.00 162.00 L 767.00 162.00 C 767.00 162.00 766.77 162.00 766.50 162.00 C 766.23 162.00 765.55 161.55 764.00 160.00 C 759.35 156.12 757.55 154.78 757.00 154.50 C 756.45 154.22 755.10 153.55 754.00 153.00 C 752.90 152.45 752.00 152.00 752.00 152.00 L 752.00 152.00 L 752.00 152.00 C 752.00 152.00 747.50 149.53 742.00 146.50 C 736.50 143.47 732.00 140.78 732.00 140.00 L 732.00 140.00 C 732.00 140.00 731.77 139.55 731.50 139.00 C 731.23 138.45 731.23 138.00 731.50 138.00 C 731.77 138.00 732.90 138.45 734.00 139.00 C 735.10 139.55 735.77 140.45 735.50 141.00 C 735.23 141.55 735.23 142.00 735.50 142.00 C 735.77 142.00 736.23 141.78 737.00 141.00 Z" fill-rule="evenodd"/>
	<path fill="#C7473B33" d="M 319.00 146.00 L 319.00 146.00 C 319.00 146.00 318.77 146.00 318.00 146.00 L 318.00 146.00 C 318.00 146.00 317.55 146.00 317.00 146.00 C 316.45 146.00 316.68 145.32 317.50 144.50 C 318.32 143.68 319.23 143.22 319.50 143.50 C 319.77 143.78 319.77 144.45 319.00 146.00 Z" fill-rule="evenodd"/>
	<path fill="#C9493E33" d="M 311.00 150.00 L 311.00 150.00 C 311.00 150.00 311.00 150.22 311.00 150.50 C 311.00 150.78 303.12 155.50 276.00 171.00 C 272.90 171.78 271.55 172.45 271.00 173.00 C 270.45 173.55 269.77 173.78 269.50 173.50 C 269.23 173.22 269.00 173.00 269.00 173.00 L 269.00 173.00 C 279.07 162.93 282.68 159.55 283.50 159.00 C 284.32 158.45 287.02 158.00 289.50 158.00 C 292.92 158.00 295.69 157.04 301.00 154.00 C 304.85 151.80 308.00 150.00 308.00 150.00 L 308.00 150.00 L 308.00 150.00 C 308.00 150.00 308.68 149.55 309.50 149.00 C 310.32 148.45 311.23 148.22 311.50 148.50 C 311.77 148.78 311.77 149.22 311.00 150.00 Z M 277.50 167.50 C 277.23 167.78 277.23 168.22 277.50 168.50 C 277.77 168.78 278.45 168.55 279.00 168.00 C 279.67 167.33 279.67 167.00 279.00 167.00 C 278.45 167.00 277.77 167.22 277.50 167.50 Z M 276.00 169.50 C 276.00 169.78 276.23 170.00 276.50 170.00 C 276.77 170.00 276.77 169.78 276.50 169.50 C 276.23 169.22 276.00 169.22 276.00 169.50 Z" fill-rule="evenodd"/>
	<path fill="#A8403693" d="M 752.00 152.00 L 752.00 152.00 C 752.00 152.00 752.90 152.45 754.00 153.00 C 755.10 153.55 756.45 154.22 757.00 154.50 C 757.55 154.78 759.35 156.12 764.00 160.00 L 764.00 160.00 C 764.00 160.00 761.30 158.43 758.00 156.50 C 754.70 154.57 752.00 152.78 752.00 152.00 Z" fill-rule="evenodd"/>
	<path fill="#CC493F0A" d="M 768.00 162.00 L 768.00 162.00 C 768.00 162.00 767.77 162.00 767.00 162.00 L 767.00 162.00 C 767.00 162.00 766.55 161.32 766.00 160.50 C 765.26 159.39 765.39 159.00 766.50 159.00 C 767.33 159.00 769.35 160.35 771.00 162.00 C 772.65 163.65 773.10 164.32 772.00 163.50 C 770.90 162.68 769.55 162.00 768.00 162.00 Z" fill-rule="evenodd"/>
	<path fill="#B4433870" d="M 276.00 171.00 L 276.00 171.00 C 276.00 171.00 275.55 171.45 275.00 172.00 C 274.45 172.55 266.35 177.50 240.00 193.00 C 241.55 190.68 242.90 189.55 244.00 189.00 C 245.10 188.45 246.00 188.00 246.00 188.00 L 246.00 188.00 C 246.78 188.00 247.00 187.78 247.00 187.50 C 247.00 187.22 247.00 187.00 247.00 187.00 L 247.00 187.00 C 247.78 187.00 248.22 187.00 248.50 187.00 C 248.78 187.00 249.00 187.00 249.00 187.00 L 249.00 187.00 C 253.65 183.90 255.00 182.78 255.00 182.50 C 255.00 182.22 255.00 182.00 255.00 182.00 L 255.00 182.00 C 255.78 181.22 258.93 179.20 262.50 177.00 C 266.07 174.80 269.00 173.00 269.00 173.00 L 269.00 173.00 L 269.00 173.00 C 269.00 173.00 269.23 173.22 269.50 173.50 C 269.77 173.78 270.45 173.55 271.00 173.00 C 271.55 172.45 272.90 171.78 276.00 171.00 Z" fill-rule="evenodd"/>
	<path fill="#B6453B5C" d="M 782.00 172.00 L 782.00 172.00 C 782.00 172.00 782.23 172.00 782.50 172.00 C 782.77 172.00 783.23 172.00 784.00 172.00 C 801.43 184.45 810.94 192.94 822.50 204.50 C 836.83 218.83 841.36 224.08 847.50 233.50 C 851.62 239.82 856.35 247.47 858.00 250.50 C 859.65 253.53 862.35 259.15 864.00 263.00 C 865.65 266.85 868.12 273.15 869.50 277.00 C 870.88 280.85 872.90 288.73 874.00 294.50 C 875.10 300.27 876.45 309.27 877.00 314.50 C 877.84 322.44 877.75 324.41 876.50 326.50 C 875.67 327.88 875.00 329.00 875.00 329.00 L 875.00 329.00 L 875.00 329.00 C 875.00 329.00 874.77 323.60 874.50 317.00 C 874.23 310.40 873.10 300.95 872.00 296.00 C 870.90 291.05 868.65 282.73 867.00 277.50 C 865.35 272.27 861.08 262.15 857.50 255.00 C 853.92 247.85 847.40 237.05 843.00 231.00 C 838.22 224.43 829.17 214.17 820.50 205.50 C 812.52 197.53 800.60 186.72 782.00 172.00 Z" fill-rule="evenodd"/>
	<path fill="#C9473C36" d="M 255.00 182.00 L 255.00 182.00 C 255.00 182.00 255.00 182.22 255.00 182.50 C 255.00 182.78 253.65 183.90 249.00 187.00 C 249.78 186.22 249.78 185.78 249.50 185.50 C 249.22 185.22 248.55 185.45 248.00 186.00 C 247.45 186.55 247.00 187.00 247.00 187.00 L 247.00 187.00 C 246.22 187.00 246.00 187.22 246.00 187.50 C 246.00 187.78 246.00 188.00 246.00 188.00 L 246.00 188.00 L 246.00 188.00 C 246.00 188.00 245.10 188.45 244.00 189.00 C 242.90 189.55 241.55 190.68 240.00 193.00 L 240.00 193.00 C 240.00 193.00 239.78 193.00 239.00 193.00 C 236.68 193.00 234.65 194.35 233.00 196.00 C 231.35 197.65 230.00 199.00 230.00 199.00 L 230.00 199.00 L 230.00 199.00 C 230.00 199.00 225.28 201.93 219.50 205.50 C 213.72 209.07 196.18 219.43 152.00 245.00 C 150.45 245.00 148.65 245.68 147.00 246.50 C 145.35 247.32 144.00 248.00 144.00 248.00 L 144.00 248.00 C 150.20 241.80 153.35 239.32 155.00 238.50 C 156.65 237.68 160.03 236.32 162.50 235.50 C 164.97 234.68 172.40 230.85 179.00 227.00 C 186.27 222.76 191.79 218.82 193.00 217.00 C 194.33 215.00 195.83 214.00 197.50 214.00 C 198.88 214.00 206.30 210.40 214.00 206.00 C 222.97 200.87 228.72 196.92 230.00 195.00 C 231.10 193.35 233.57 191.10 235.50 190.00 C 237.43 188.90 239.00 187.32 239.00 186.50 C 239.00 185.68 239.68 184.55 240.50 184.00 C 241.50 183.33 243.00 183.33 245.00 184.00 C 247.40 184.80 248.10 184.70 248.50 183.50 C 248.80 182.61 250.22 182.00 252.00 182.00 C 253.65 182.00 255.00 182.00 255.00 182.00 L 255.00 182.00 Z" fill-rule="evenodd"/>
	<path fill="#B4433779" d="M 239.00 193.00 L 239.00 193.00 C 239.00 193.00 239.00 193.22 239.00 193.50 C 239.00 193.78 236.97 195.12 230.00 199.00 L 230.00 199.00 C 230.00 199.00 231.35 197.65 233.00 196.00 C 234.65 194.35 236.68 193.00 239.00 193.00 Z" fill-rule="evenodd"/>
	<path fill="#B0403658" d="M 152.00 245.00 L 152.00 245.00 C 152.00 245.00 151.10 245.68 150.00 246.50 C 148.90 247.32 146.20 249.35 140.00 254.00 C 140.00 250.90 140.90 249.55 142.00 249.00 C 143.10 248.45 144.00 248.00 144.00 248.00 L 144.00 248.00 L 144.00 248.00 C 144.00 248.00 145.35 247.32 147.00 246.50 C 148.65 245.68 150.45 245.00 152.00 245.00 Z" fill-rule="evenodd"/>
	<path fill="#D42A20FE" d="M 626.00 396.00 C 626.00 395.23 625.77 395.00 625.50 395.00 C 625.23 395.00 625.00 395.00 625.00 395.00 L 625.00 395.00 C 620.35 391.90 615.85 389.65 612.00 388.00 C 608.15 386.35 601.17 384.10 596.50 383.00 C 591.83 381.90 583.73 380.77 578.50 380.50 C 573.27 380.23 564.73 380.45 559.50 381.00 C 554.27 381.55 546.17 383.12 541.50 384.50 C 536.83 385.88 528.50 389.25 523.00 392.00 C 517.50 394.75 508.05 400.15 502.00 404.00 C 495.95 407.85 483.80 415.50 475.00 421.00 C 466.20 426.50 447.30 438.43 433.00 447.50 C 418.70 456.57 395.75 471.20 382.00 480.00 C 368.25 488.80 351.15 499.60 344.00 504.00 C 336.85 508.40 331.00 512.00 331.00 512.00 L 331.00 512.00 C 331.00 405.82 331.00 374.77 331.00 374.50 C 331.00 374.23 331.00 374.00 331.00 374.00 L 331.00 374.00 L 331.00 374.00 C 331.00 374.00 333.02 372.65 335.50 371.00 C 337.98 369.35 355.07 358.55 373.50 347.00 C 391.93 335.45 421.62 316.77 439.50 305.50 C 457.38 294.23 481.00 279.38 492.00 272.50 C 503.00 265.62 514.70 258.65 518.00 257.00 C 521.30 255.35 528.05 252.65 533.00 251.00 C 537.95 249.35 546.27 247.32 551.50 246.50 C 556.73 245.68 565.50 245.00 571.00 245.00 C 576.50 245.00 585.50 245.68 591.00 246.50 C 596.50 247.32 604.60 249.12 609.00 250.50 C 613.40 251.88 619.92 254.35 623.50 256.00 C 627.08 257.65 633.15 261.02 637.00 263.50 C 640.85 265.98 646.92 270.48 650.50 273.50 C 654.08 276.52 659.02 281.70 661.50 285.00 C 663.98 288.30 667.58 293.93 669.50 297.50 C 671.42 301.07 673.67 305.80 674.50 308.00 C 675.33 310.20 676.45 315.38 677.00 319.50 C 677.67 324.50 677.67 329.17 677.00 333.50 C 676.45 337.07 674.88 342.70 673.50 346.00 C 672.12 349.30 669.65 354.48 668.00 357.50 C 666.28 360.65 660.73 367.27 655.00 373.00 C 649.50 378.50 640.73 385.93 626.00 396.00 Z" fill-rule="evenodd"/>
	<path fill="#F23E2DFE" d="M 331.00 374.00 L 331.00 374.00 C 331.00 374.00 331.00 374.23 331.00 374.50 C 331.00 374.77 331.00 405.82 331.00 512.00 C 331.00 512.77 331.00 513.00 331.00 513.00 L 331.00 513.00 C 331.00 672.65 331.00 743.08 331.00 772.50 C 331.00 801.92 331.00 826.00 331.00 826.00 L 331.00 826.00 C 331.00 831.42 330.77 833.90 330.50 835.00 C 330.23 836.10 329.32 837.90 328.50 839.00 C 327.68 840.10 326.10 841.00 325.00 841.00 C 323.90 841.00 323.00 841.00 323.00 841.00 L 323.00 841.00 C 321.45 841.00 315.38 837.62 308.50 833.50 C 301.62 829.38 294.43 825.10 292.50 824.00 C 290.57 822.90 270.77 810.98 248.50 797.50 C 226.22 784.02 200.80 768.73 192.00 763.50 C 183.20 758.27 168.57 749.27 159.50 743.50 C 149.85 737.36 142.17 731.75 141.00 730.00 C 139.90 728.35 139.00 727.00 139.00 727.00 L 139.00 727.00 C 139.00 374.38 139.00 271.77 139.00 271.50 C 139.00 271.23 139.00 271.00 139.00 271.00 L 139.00 271.00 L 139.00 271.00 C 139.00 271.00 139.22 269.20 139.50 267.00 C 139.78 264.80 140.45 262.55 141.00 262.00 C 141.67 261.33 144.83 262.67 150.50 266.00 C 155.18 268.75 161.93 272.57 165.50 274.50 C 169.07 276.43 176.50 280.70 182.00 284.00 C 187.50 287.30 195.82 292.48 200.50 295.50 C 205.18 298.52 215.97 305.05 224.50 310.00 C 233.03 314.95 245.85 322.60 253.00 327.00 C 260.15 331.40 268.93 336.57 272.50 338.50 C 276.07 340.43 279.45 342.45 280.00 343.00 C 280.55 343.55 286.85 347.38 294.00 351.50 C 301.15 355.62 309.70 360.57 313.00 362.50 C 316.30 364.43 319.45 366.45 320.00 367.00 C 320.55 367.55 323.25 369.35 331.00 374.00 Z" fill-rule="evenodd"/>
	<path fill="#A3352C62" d="M 875.00 337.00 C 876.65 340.30 876.83 363.15 876.50 404.50 C 876.19 444.30 875.63 468.56 875.00 469.50 C 874.45 470.32 874.23 471.68 874.50 472.50 C 874.77 473.32 874.77 474.45 874.50 475.00 C 874.23 475.55 873.77 477.35 873.50 479.00 C 873.23 480.65 872.77 483.12 872.50 484.50 C 872.23 485.88 871.55 487.45 871.00 488.00 C 870.45 488.55 870.00 490.35 870.00 492.00 C 870.00 493.65 869.55 495.45 869.00 496.00 C 868.45 496.55 868.23 497.68 868.50 498.50 C 868.77 499.32 868.55 500.23 868.00 500.50 C 867.45 500.77 867.00 501.90 867.00 503.00 C 867.00 504.10 866.33 506.35 865.50 508.00 C 864.67 509.65 863.55 512.80 863.00 515.00 C 862.45 517.20 861.55 519.00 861.00 519.00 C 860.45 519.00 860.23 519.90 860.50 521.00 C 860.77 522.10 860.55 524.12 860.00 525.50 C 859.45 526.88 857.20 530.25 855.00 533.00 C 852.80 535.75 849.20 540.92 847.00 544.50 C 844.80 548.08 842.10 551.45 841.00 552.00 C 839.90 552.55 839.00 553.45 839.00 554.00 C 839.00 554.55 836.30 558.38 833.00 562.50 C 829.70 566.62 827.00 570.45 827.00 571.00 C 827.00 571.55 822.95 576.05 818.00 581.00 C 813.05 585.95 804.05 594.50 798.00 600.00 C 791.95 605.50 786.33 611.12 785.50 612.50 C 784.50 614.17 783.67 614.67 783.00 614.00 C 782.33 613.33 779.17 615.67 773.50 621.00 C 768.83 625.40 764.55 629.00 764.00 629.00 C 763.45 629.00 763.00 629.67 763.00 630.50 C 763.00 631.33 765.70 634.92 769.00 638.50 C 772.30 642.08 785.58 657.15 798.50 672.00 C 811.42 686.85 822.00 699.23 822.00 699.50 C 822.00 699.77 823.35 701.58 825.00 703.50 C 826.65 705.42 833.62 713.52 840.50 721.50 C 847.38 729.48 854.35 736.67 856.00 737.50 C 857.65 738.33 859.00 739.00 859.00 739.00 L 859.00 739.00 C 858.19 742.23 858.96 744.15 860.50 746.00 C 861.88 747.65 863.00 749.00 863.00 749.00 L 863.00 749.00 L 863.00 749.00 C 863.00 749.00 857.15 742.48 850.00 734.50 C 842.85 726.52 832.95 715.27 828.00 709.50 C 823.05 703.73 806.62 684.83 791.50 667.50 C 776.38 650.17 763.10 634.88 760.00 631.00 C 760.00 629.45 764.50 625.40 770.00 621.00 C 775.50 616.60 786.75 606.92 795.00 599.50 C 803.25 592.08 813.83 581.95 818.50 577.00 C 823.17 572.05 830.60 563.27 835.00 557.50 C 839.40 551.73 845.25 543.40 848.00 539.00 C 850.75 534.60 855.02 526.73 857.50 521.50 C 859.98 516.27 863.35 508.18 865.00 503.50 C 866.65 498.82 869.12 489.82 870.50 483.50 C 871.88 477.18 873.45 466.15 874.00 459.00 C 874.57 451.55 874.79 427.44 874.50 402.50 C 874.23 378.57 874.00 359.00 874.00 359.00 L 874.00 359.00 L 874.00 359.00 C 874.00 359.00 874.23 356.75 874.50 354.00 C 874.77 351.25 875.00 346.30 875.00 337.00 Z M 859.00 521.50 C 859.00 521.77 859.23 522.00 859.50 522.00 C 859.77 522.00 859.77 521.77 859.50 521.50 C 859.23 521.23 859.00 521.23 859.00 521.50 Z M 854.00 532.50 C 854.00 532.77 854.23 533.00 854.50 533.00 C 854.77 533.00 854.77 532.77 854.50 532.50 C 854.23 532.23 854.00 532.23 854.00 532.50 Z M 855.50 739.50 C 855.77 740.33 856.45 741.00 857.00 741.00 C 857.55 741.00 857.33 740.33 856.50 739.50 C 855.17 738.17 855.06 738.17 855.50 739.50 Z" fill-rule="evenodd"/>
	<path fill="#DB2F24FE" d="M 874.00 359.00 L 874.00 359.00 C 874.00 359.00 874.23 378.57 874.50 402.50 C 874.79 427.44 874.57 451.55 874.00 459.00 C 873.45 466.15 871.88 477.18 870.50 483.50 C 869.12 489.82 866.65 498.82 865.00 503.50 C 863.35 508.18 859.98 516.27 857.50 521.50 C 855.02 526.73 850.75 534.60 848.00 539.00 C 845.25 543.40 839.40 551.73 835.00 557.50 C 830.60 563.27 823.17 572.05 818.50 577.00 C 813.83 581.95 803.25 592.08 795.00 599.50 C 786.75 606.92 775.50 616.60 770.00 621.00 C 764.50 625.40 760.00 629.45 760.00 631.00 L 760.00 631.00 C 760.00 631.00 755.95 626.50 751.00 621.00 C 746.05 615.50 738.85 607.40 735.00 603.00 C 731.15 598.60 725.08 591.62 721.50 587.50 C 717.92 583.38 709.15 573.48 702.00 565.50 C 694.85 557.52 688.55 549.88 688.00 548.50 C 687.45 547.12 687.23 545.10 687.50 544.00 C 687.79 542.85 692.23 539.25 698.00 535.50 C 703.50 531.92 715.42 523.83 724.50 517.50 C 733.58 511.18 747.30 501.73 755.00 496.50 C 762.70 491.27 776.20 481.82 785.00 475.50 C 793.80 469.18 804.83 460.85 809.50 457.00 C 814.17 453.15 821.60 446.18 826.00 441.50 C 830.40 436.82 835.58 431.20 837.50 429.00 C 839.42 426.80 843.48 421.62 846.50 417.50 C 849.52 413.38 854.02 406.40 856.50 402.00 C 858.98 397.60 862.35 390.85 864.00 387.00 C 865.65 383.15 868.12 376.18 869.50 371.50 C 870.88 366.82 872.00 362.32 872.00 361.50 C 872.00 360.68 872.45 359.77 874.00 359.00 Z" fill-rule="evenodd"/>
	<path fill="#952B2388" d="M 625.00 395.00 C 622.67 394.23 621.77 394.00 621.50 394.00 C 621.23 394.00 621.00 394.00 621.00 394.00 L 621.00 394.00 C 620.23 393.23 617.08 391.65 613.50 390.00 C 609.92 388.35 603.62 386.10 599.50 385.00 C 595.38 383.90 587.73 382.55 582.50 382.00 C 576.17 381.33 569.50 381.33 562.50 382.00 C 556.73 382.55 548.62 383.90 544.50 385.00 C 540.38 386.10 533.85 388.35 530.00 390.00 C 526.15 391.65 518.73 395.48 513.50 398.50 C 508.27 401.52 499.27 407.15 493.50 411.00 C 487.73 414.85 477.82 421.15 471.50 425.00 C 465.18 428.85 450.77 437.85 439.50 445.00 C 428.23 452.15 417.65 458.90 416.00 460.00 C 414.35 461.10 403.32 468.07 391.50 475.50 C 379.68 482.93 365.73 491.93 360.50 495.50 C 355.27 499.07 351.23 502.00 351.50 502.00 C 351.77 502.00 351.55 502.68 351.00 503.50 C 350.45 504.32 349.32 504.77 348.50 504.50 C 347.68 504.23 344.07 505.80 340.50 508.00 C 336.93 510.20 334.00 512.00 334.00 512.00 L 334.00 512.00 C 332.45 512.00 331.77 512.23 331.50 512.50 C 331.23 512.77 331.00 513.00 331.00 513.00 L 331.00 513.00 L 331.00 513.00 C 331.00 513.00 331.00 512.77 331.00 512.00 L 331.00 512.00 C 331.00 512.00 336.85 508.40 344.00 504.00 C 351.15 499.60 368.25 488.80 382.00 480.00 C 395.75 471.20 418.70 456.57 433.00 447.50 C 447.30 438.43 466.20 426.50 475.00 421.00 C 483.80 415.50 495.95 407.85 502.00 404.00 C 508.05 400.15 517.50 394.75 523.00 392.00 C 528.50 389.25 536.83 385.88 541.50 384.50 C 546.17 383.12 554.27 381.55 559.50 381.00 C 564.73 380.45 573.27 380.23 578.50 380.50 C 583.73 380.77 591.83 381.90 596.50 383.00 C 601.17 384.10 608.15 386.35 612.00 388.00 C 615.85 389.65 620.35 391.90 625.00 395.00 Z M 350.00 502.50 C 350.00 502.77 350.23 503.00 350.50 503.00 C 350.77 503.00 350.77 502.77 350.50 502.50 C 350.23 502.23 350.00 502.23 350.00 502.50 Z M 349.00 503.50 C 349.00 503.77 349.23 504.00 349.50 504.00 C 349.77 504.00 349.77 503.77 349.50 503.50 C 349.23 503.23 349.00 503.23 349.00 503.50 Z" fill-rule="evenodd"/>
	<path fill="#AC352A73" d="M 621.00 394.00 L 621.00 394.00 C 621.00 394.00 621.23 394.00 621.50 394.00 C 621.77 394.00 622.67 394.23 625.00 395.00 L 625.00 395.00 C 625.00 395.00 625.23 395.00 625.50 395.00 C 625.77 395.00 626.00 395.23 626.00 396.00 L 626.00 396.00 C 626.00 396.00 623.98 397.57 621.50 399.50 C 619.02 401.43 580.10 427.52 535.00 457.50 C 489.90 487.48 449.85 514.02 446.00 516.50 C 442.15 518.98 437.88 522.35 436.50 524.00 C 434.50 526.40 434.00 528.10 434.00 538.00 C 434.00 684.17 434.08 687.25 436.00 693.50 C 437.10 697.08 439.57 702.25 441.50 705.00 C 443.43 707.75 446.80 712.25 449.00 715.00 C 451.20 717.75 456.38 724.27 460.50 729.50 C 464.62 734.73 484.20 759.25 504.00 784.00 C 523.80 808.75 540.00 829.00 540.00 829.00 L 540.00 829.00 C 539.23 829.00 538.77 829.00 538.50 829.00 C 538.23 829.00 538.00 829.00 538.00 829.00 L 538.00 829.00 C 537.23 826.67 536.55 826.00 536.00 826.00 C 535.33 826.00 535.33 826.50 536.00 827.50 C 536.55 828.33 536.77 829.23 536.50 829.50 C 536.23 829.77 536.00 830.00 536.00 830.00 L 536.00 830.00 C 534.45 829.23 534.00 828.10 534.00 827.00 C 534.00 825.90 531.08 821.40 527.50 817.00 C 523.92 812.60 521.00 808.77 521.00 808.50 C 521.00 808.23 519.88 806.88 518.50 805.50 C 517.12 804.12 509.02 794.23 500.50 783.50 C 491.98 772.77 476.23 752.98 465.50 739.50 C 454.77 726.02 444.43 712.75 442.50 710.00 C 440.57 707.25 438.10 703.42 437.00 701.50 C 435.90 699.58 434.32 695.52 433.50 692.50 C 432.68 689.48 432.00 685.65 432.00 684.00 C 432.00 682.35 431.77 680.33 431.50 679.50 C 431.23 678.67 431.23 644.02 431.50 602.50 C 431.93 538.09 432.22 526.56 433.50 524.00 C 434.64 521.72 450.69 510.62 500.00 478.00 C 535.75 454.35 577.15 426.68 592.00 416.50 C 606.85 406.32 619.45 397.10 620.00 396.00 C 620.55 394.90 621.00 394.00 621.00 394.00 L 621.00 394.00 Z" fill-rule="evenodd"/>
	<path fill="#B6372D54" d="M 334.00 512.00 C 333.23 513.55 333.00 583.52 333.00 668.50 C 333.00 769.83 332.66 823.52 332.00 824.50 C 331.45 825.33 331.00 826.00 331.00 826.00 L 331.00 826.00 L 331.00 826.00 C 331.00 826.00 331.00 801.92 331.00 772.50 C 331.00 743.08 331.00 672.65 331.00 513.00 L 331.00 513.00 C 331.00 513.00 331.23 512.77 331.50 512.50 C 331.77 512.23 332.45 512.00 334.00 512.00 Z" fill-rule="evenodd"/>
	<path fill="#ED3929FE" d="M 712.00 863.00 C 710.38 863.81 710.00 871.83 710.00 884.50 C 710.00 895.77 709.77 928.62 709.50 957.50 C 709.23 986.38 709.00 1010.00 709.00 1010.00 L 709.00 1010.00 C 702.47 1014.08 699.53 1015.00 697.00 1015.00 C 694.67 1015.00 691.75 1014.17 690.00 1013.00 C 688.35 1011.90 682.27 1005.15 676.50 998.00 C 670.73 990.85 658.80 976.23 650.00 965.50 C 641.20 954.77 630.17 941.27 625.50 935.50 C 620.83 929.73 617.00 925.00 617.00 925.00 L 617.00 925.00 C 603.83 908.73 593.02 895.23 584.50 884.50 C 575.98 873.77 562.48 857.12 554.50 847.50 C 546.52 837.88 540.00 830.00 540.00 830.00 L 540.00 830.00 C 540.00 829.23 540.00 829.00 540.00 829.00 L 540.00 829.00 L 540.00 829.00 C 540.00 829.00 523.80 808.75 504.00 784.00 C 484.20 759.25 464.62 734.73 460.50 729.50 C 456.38 724.27 451.20 717.75 449.00 715.00 C 446.80 712.25 443.43 707.75 441.50 705.00 C 439.57 702.25 437.10 697.08 436.00 693.50 C 434.08 687.25 434.00 684.17 434.00 538.00 L 434.00 538.00 C 434.00 538.00 434.45 537.77 435.00 537.50 C 435.55 537.23 436.90 538.35 438.00 540.00 C 439.10 541.65 443.82 547.27 448.50 552.50 C 453.18 557.73 458.12 563.58 459.50 565.50 C 460.88 567.42 464.93 572.38 468.50 576.50 C 472.07 580.62 479.50 589.62 485.00 596.50 C 490.50 603.38 497.70 612.15 501.00 616.00 C 504.30 619.85 518.25 636.50 532.00 653.00 C 545.75 669.50 560.15 686.60 564.00 691.00 C 567.85 695.40 578.42 708.23 587.50 719.50 C 596.58 730.77 610.75 748.10 619.00 758.00 C 627.25 767.90 637.60 780.05 642.00 785.00 C 646.40 789.95 656.98 802.77 665.50 813.50 C 674.02 824.23 684.60 837.27 689.00 842.50 C 693.40 847.73 698.80 854.25 701.00 857.00 C 704.10 860.87 705.79 862.11 712.00 863.00 Z" fill-rule="evenodd"/>
	<path fill="#A22F2551" d="M 139.00 727.00 L 139.00 727.00 C 139.00 727.00 139.90 728.35 141.00 730.00 C 142.17 731.75 149.85 737.36 159.50 743.50 C 168.57 749.27 183.20 758.27 192.00 763.50 C 200.80 768.73 226.22 784.02 248.50 797.50 C 270.77 810.98 290.57 822.90 292.50 824.00 C 294.43 825.10 301.62 829.38 308.50 833.50 C 315.38 837.62 321.45 841.00 323.00 841.00 C 320.42 842.72 319.01 842.44 316.50 841.00 C 314.57 839.90 310.98 837.88 308.50 836.50 C 306.02 835.12 302.88 834.00 301.50 834.00 C 299.79 834.00 298.21 832.90 296.50 830.50 C 294.79 828.10 293.21 827.00 291.50 827.00 C 290.00 827.00 288.60 826.20 288.00 825.00 C 287.45 823.90 281.60 819.85 275.00 816.00 C 268.40 812.15 249.95 801.12 234.00 791.50 C 218.05 781.88 194.65 767.70 182.00 760.00 C 169.35 752.30 157.65 745.10 156.00 744.00 C 154.35 742.90 151.43 741.33 149.50 740.50 C 147.57 739.67 144.20 737.20 142.00 735.00 C 139.20 732.20 138.15 730.40 138.50 729.00 C 138.78 727.90 139.00 727.00 139.00 727.00 L 139.00 727.00 Z" fill-rule="evenodd"/>
	<path fill="#C64D3E04" d="M 855.50 739.50 C 855.06 738.17 855.17 738.17 856.50 739.50 C 857.33 740.33 857.55 741.00 857.00 741.00 C 856.45 741.00 855.77 740.33 855.50 739.50 Z" fill-rule="evenodd"/>
	<path fill="#D3493E01" d="M 859.00 739.00 C 862.88 742.10 865.12 745.02 866.50 747.50 C 867.88 749.98 869.00 752.00 869.00 752.00 L 869.00 752.00 C 866.67 752.00 865.33 751.55 864.50 751.00 C 863.67 750.45 863.00 750.00 863.00 750.00 L 863.00 750.00 L 863.00 750.00 C 863.00 750.00 863.00 749.77 863.00 749.00 L 863.00 749.00 C 863.00 749.00 861.88 747.65 860.50 746.00 C 858.96 744.15 858.19 742.23 859.00 739.00 Z" fill-rule="evenodd"/>
	<path fill="#A531286A" d="M 863.00 750.00 L 863.00 750.00 C 863.00 750.00 863.67 750.45 864.50 751.00 C 865.33 751.55 866.67 752.00 869.00 752.00 C 869.77 760.52 869.77 794.73 869.50 833.50 C 869.07 893.77 868.78 904.36 867.50 906.50 C 866.67 907.88 863.08 911.25 859.50 914.00 C 855.92 916.75 850.98 919.90 848.50 921.00 C 846.02 922.10 844.00 923.00 844.00 923.00 L 844.00 923.00 C 859.50 912.15 864.67 908.10 865.50 907.00 C 866.80 905.27 867.00 895.61 867.00 834.50 C 867.00 795.73 867.00 764.00 867.00 764.00 L 867.00 764.00 L 867.00 764.00 C 867.00 764.00 867.00 762.42 867.00 760.50 C 867.00 758.58 866.10 755.42 863.00 750.00 Z" fill-rule="evenodd"/>
	<path fill="#DA2D23FE" d="M 867.00 764.00 L 867.00 764.00 C 867.00 764.00 867.00 795.73 867.00 834.50 C 867.00 895.61 866.80 905.27 865.50 907.00 C 864.67 908.10 859.50 912.15 844.00 923.00 C 834.70 928.42 832.00 930.23 832.00 930.50 C 832.00 930.77 832.00 931.00 832.00 931.00 L 832.00 931.00 C 812.62 942.62 798.23 951.85 787.50 959.00 C 776.77 966.15 763.73 974.70 758.50 978.00 C 753.27 981.30 741.80 988.73 733.00 994.50 C 724.20 1000.27 715.20 1006.12 713.00 1007.50 C 710.80 1008.88 709.00 1010.00 709.00 1010.00 L 709.00 1010.00 L 709.00 1010.00 C 709.00 1010.00 709.23 986.38 709.50 957.50 C 709.77 928.62 710.00 895.77 710.00 884.50 C 710.00 871.83 710.38 863.81 712.00 863.00 L 712.00 863.00 C 712.00 863.00 713.12 862.55 714.50 862.00 C 715.88 861.45 721.73 858.08 727.50 854.50 C 733.27 850.92 749.70 840.35 764.00 831.00 C 778.30 821.65 799.45 807.92 811.00 800.50 C 822.55 793.08 839.88 781.83 867.00 764.00 Z" fill-rule="evenodd"/>
	<path fill="#B5362903" d="M 538.00 829.00 C 538.00 829.77 538.23 830.00 538.50 830.00 C 538.77 830.00 539.00 830.00 539.00 830.00 L 539.00 830.00 C 550.62 844.73 557.60 853.50 562.00 859.00 C 566.40 864.50 570.00 869.00 570.00 869.00 L 570.00 869.00 C 566.90 865.90 559.92 857.58 552.50 848.50 C 545.08 839.42 539.00 832.00 539.00 832.00 L 539.00 832.00 C 538.17 830.33 537.83 830.33 537.50 831.00 C 537.23 831.55 537.00 832.00 537.00 832.00 L 537.00 832.00 C 536.23 832.00 536.00 831.55 536.00 831.00 C 536.00 830.45 536.00 830.00 536.00 830.00 L 536.00 830.00 L 536.00 830.00 C 536.00 830.00 536.23 829.77 536.50 829.50 C 536.77 829.23 536.55 828.33 536.00 827.50 C 535.33 826.50 535.33 826.00 536.00 826.00 C 536.55 826.00 537.23 826.67 538.00 829.00 Z" fill-rule="evenodd"/>
	<path fill="#B4322825" d="M 538.00 829.00 L 538.00 829.00 C 538.00 829.00 538.23 829.00 538.50 829.00 C 538.77 829.00 539.23 829.00 540.00 829.00 L 540.00 829.00 C 540.00 829.00 540.00 829.23 540.00 830.00 C 539.23 830.00 539.00 830.00 539.00 830.00 L 539.00 830.00 L 539.00 830.00 C 539.00 830.00 538.77 830.00 538.50 830.00 C 538.23 830.00 538.00 829.77 538.00 829.00 Z" fill-rule="evenodd"/>
	<path fill="#AC352A73" d="M 539.00 832.00 C 538.23 832.00 537.77 832.00 537.50 832.00 C 537.23 832.00 537.00 832.00 537.00 832.00 L 537.00 832.00 L 537.00 832.00 C 537.00 832.00 537.23 831.55 537.50 831.00 C 537.83 830.33 538.17 830.33 539.00 832.00 Z" fill-rule="evenodd"/>
	<path fill="#AC352A73" d="M 539.00 830.00 L 539.00 830.00 C 539.00 830.00 539.23 830.00 540.00 830.00 L 540.00 830.00 C 540.00 830.00 546.52 837.88 554.50 847.50 C 562.48 857.12 575.98 873.77 584.50 884.50 C 593.02 895.23 603.83 908.73 617.00 925.00 C 613.12 921.90 612.00 921.23 612.00 921.50 C 612.00 921.77 612.00 922.00 612.00 922.00 L 612.00 922.00 C 602.70 910.38 596.40 902.73 592.00 897.50 C 587.60 892.27 580.85 883.73 577.00 878.50 C 573.15 873.27 570.00 869.00 570.00 869.00 L 570.00 869.00 L 570.00 869.00 C 570.00 869.00 566.40 864.50 562.00 859.00 C 557.60 853.50 550.62 844.73 539.00 830.00 Z" fill-rule="evenodd"/>
	<path fill="#992D235C" d="M 617.00 925.00 L 617.00 925.00 C 617.00 925.00 620.83 929.73 625.50 935.50 C 630.17 941.27 641.20 954.77 650.00 965.50 C 658.80 976.23 670.73 990.85 676.50 998.00 C 682.27 1005.15 688.35 1011.90 690.00 1013.00 C 691.75 1014.17 694.67 1015.00 697.00 1015.00 C 699.53 1015.00 702.47 1014.08 709.00 1010.00 L 709.00 1010.00 C 709.00 1010.00 710.80 1008.88 713.00 1007.50 C 715.20 1006.12 724.20 1000.27 733.00 994.50 C 741.80 988.73 753.27 981.30 758.50 978.00 C 763.73 974.70 776.77 966.15 787.50 959.00 C 798.23 951.85 812.62 942.62 832.00 931.00 C 832.77 931.00 833.23 931.00 833.50 931.00 C 833.77 931.00 833.55 931.45 833.00 932.00 C 832.45 932.55 827.50 935.92 822.00 939.50 C 816.50 943.08 811.55 946.00 811.00 946.00 C 810.45 946.00 809.77 946.45 809.50 947.00 C 809.23 947.55 793.70 957.90 775.00 970.00 C 756.30 982.10 734.48 996.27 726.50 1001.50 C 718.52 1006.73 710.20 1012.12 708.00 1013.50 C 705.80 1014.88 703.55 1015.77 703.00 1015.50 C 702.45 1015.23 702.00 1015.45 702.00 1016.00 C 702.00 1016.55 699.75 1017.00 697.00 1017.00 C 693.67 1017.00 691.00 1016.33 689.00 1015.00 C 687.35 1013.90 683.98 1010.52 681.50 1007.50 C 679.02 1004.48 670.48 994.12 662.50 984.50 C 654.52 974.88 639.90 956.88 630.00 944.50 C 620.10 932.12 612.00 922.00 612.00 922.00 L 612.00 922.00 L 612.00 922.00 C 612.00 922.00 612.00 921.77 612.00 921.50 C 612.00 921.23 613.12 921.90 617.00 925.00 Z" fill-rule="evenodd"/>
</svg>
